<?xml version="1.0" encoding="UTF-8" standalone="no"?><!-- Generator: Gravit.io --><svg xmlns="http://www.w3.org/2000/svg" xmlns:xlink="http://www.w3.org/1999/xlink" style="isolation:isolate" viewBox="0 0 768 768" width="768pt" height="768pt"><defs><clipPath id="_clipPath_XPpiosCW4BzV0YazwWjbh9Mlisnny9sj"><rect width="768" height="768"/></clipPath></defs><g clip-path="url(#_clipPath_XPpiosCW4BzV0YazwWjbh9Mlisnny9sj)"><g><path d=" M 385 160 C 260.807 160 160 260.807 160 385 C 160 509.193 260.807 610 385 610 C 509.193 610 610 509.193 610 385 C 610 260.807 509.193 160 385 160 Z  M 385 173.636 C 501.816 173.636 596.364 268.184 596.364 385 C 596.364 501.816 501.816 596.364 385 596.364 C 268.184 596.364 173.636 501.816 173.636 385 C 173.636 268.184 268.184 173.636 385 173.636 Z  M 385 187.273 C 377.469 187.273 371.364 193.378 371.364 200.909 C 371.364 208.44 377.469 214.545 385 214.545 C 392.531 214.545 398.636 208.44 398.636 200.909 C 398.636 193.378 392.531 187.273 385 187.273 Z  M 337.409 200.377 C 337.245 200.35 337.089 200.377 336.952 200.377 C 334.906 200.5 333.024 201.536 331.826 203.199 C 330.629 204.862 330.243 206.975 330.775 208.955 C 331.238 210.701 332.379 212.192 333.943 213.096 C 335.508 214.001 337.368 214.245 339.114 213.775 C 342.761 212.786 344.916 209.057 343.955 205.409 C 343.152 202.451 340.474 200.393 337.409 200.377 Z  M 432.591 200.377 C 429.183 200.419 426.326 202.967 425.897 206.348 C 425.468 209.73 427.597 212.91 430.886 213.802 C 434.52 214.769 438.25 212.613 439.225 208.982 C 439.705 207.23 439.464 205.36 438.557 203.786 C 437.654 202.221 436.173 201.073 434.432 200.589 C 433.818 200.452 433.205 200.377 432.591 200.377 Z  M 292.798 218.752 C 289.77 218.835 287.153 220.889 286.355 223.811 C 285.896 225.557 286.141 227.413 287.036 228.98 C 287.95 230.548 289.436 231.7 291.195 232.15 C 292.938 232.628 294.8 232.387 296.364 231.482 C 299.047 229.914 300.334 226.733 299.496 223.74 C 298.657 220.748 295.905 218.698 292.798 218.752 Z  M 476.725 218.78 C 473.698 218.911 471.123 221.026 470.407 223.97 C 469.692 226.914 471.008 229.976 473.636 231.482 C 475.196 232.389 477.053 232.637 478.797 232.173 C 480.54 231.708 482.027 230.569 482.93 229.007 C 483.858 227.441 484.109 225.566 483.625 223.811 C 482.818 220.704 479.93 218.598 476.725 218.78 Z  M 385 228.182 C 381.25 228.182 378.182 231.25 378.182 235 C 378.182 238.75 381.25 241.818 385 241.818 C 388.75 241.818 391.818 238.75 391.818 235 C 391.818 231.25 388.75 228.182 385 228.182 Z  M 254.923 247.995 C 253.082 247.995 251.302 248.718 250.02 250.02 C 248.742 251.293 248.024 253.023 248.024 254.827 C 248.024 256.631 248.742 258.361 250.02 259.634 C 251.293 260.912 253.023 261.631 254.827 261.631 C 256.631 261.631 258.361 260.912 259.634 259.634 C 260.912 258.361 261.631 256.631 261.631 254.827 C 261.631 253.023 260.912 251.293 259.634 250.02 C 258.394 248.748 256.7 248.019 254.923 247.995 Z  M 515.261 247.995 C 513.42 247.995 511.648 248.718 510.366 250.02 C 509.088 251.293 508.369 253.023 508.369 254.827 C 508.369 256.631 509.088 258.361 510.366 259.634 C 511.639 260.912 513.369 261.631 515.173 261.631 C 516.977 261.631 518.707 260.912 519.98 259.634 C 521.258 258.361 521.976 256.631 521.976 254.827 C 521.976 253.023 521.258 251.293 519.98 250.02 C 518.738 248.746 517.041 248.017 515.261 247.995 Z  M 385 255.455 C 381.25 255.455 378.182 258.523 378.182 262.273 C 378.182 266.023 381.25 269.091 385 269.091 C 388.75 269.091 391.818 266.023 391.818 262.273 C 391.818 258.523 388.75 255.455 385 255.455 Z  M 434.03 257.589 L 389.445 358.177 C 387.978 357.906 386.492 357.756 385 357.727 C 370 357.727 357.727 370 357.727 385 C 357.727 400 370 412.273 385 412.273 C 389.846 412.25 394.596 410.916 398.745 408.414 L 456.168 465.782 L 465.782 456.168 L 408.414 398.745 C 410.916 394.596 412.25 389.846 412.273 385 C 412.273 376.395 408.148 368.78 401.861 363.775 L 446.5 263.091 L 434.03 257.589 Z  M 544.273 286.136 C 541.864 286.189 539.661 287.509 538.48 289.609 C 537.298 291.709 537.313 294.277 538.518 296.364 C 539.422 297.927 540.91 299.066 542.655 299.53 C 544.399 299.994 546.257 299.746 547.818 298.839 C 549.394 297.948 550.546 296.462 551.016 294.714 C 551.497 292.971 551.256 291.108 550.348 289.545 C 549.093 287.393 546.771 286.089 544.28 286.136 L 544.273 286.136 Z  M 225.257 286.136 C 222.224 286.257 219.639 288.373 218.922 291.323 C 218.205 294.272 219.529 297.339 222.168 298.839 C 223.732 299.747 225.593 299.996 227.341 299.532 C 229.089 299.068 230.581 297.928 231.489 296.364 C 233.356 293.105 232.238 288.95 228.986 287.07 C 227.86 286.405 226.564 286.081 225.257 286.136 Z  M 207.12 330.564 C 203.719 330.604 200.868 333.146 200.439 336.521 C 200.009 339.895 202.133 343.07 205.416 343.961 C 209.064 344.924 212.803 342.757 213.782 339.114 C 214.739 335.473 212.571 331.744 208.934 330.775 C 208.344 330.611 207.732 330.54 207.12 330.564 Z  M 563.077 330.564 C 560.917 330.475 558.843 331.419 557.492 333.107 C 556.14 334.795 555.673 337.025 556.232 339.114 C 557.22 342.761 560.95 344.916 564.598 343.955 C 568.218 342.973 570.373 339.25 569.418 335.595 C 568.627 332.716 566.062 330.68 563.077 330.564 L 563.077 330.564 Z  M 200.909 371.364 C 193.378 371.364 187.273 377.469 187.273 385 C 187.273 392.531 193.378 398.636 200.909 398.636 C 208.44 398.636 214.545 392.531 214.545 385 C 214.545 377.469 208.44 371.364 200.909 371.364 Z  M 385 371.364 C 392.616 371.364 398.636 377.384 398.636 385 C 398.636 392.616 392.616 398.636 385 398.636 C 377.384 398.636 371.364 392.616 371.364 385 C 371.364 377.384 377.384 371.364 385 371.364 Z  M 569.091 371.364 C 561.56 371.364 555.455 377.469 555.455 385 C 555.455 392.531 561.56 398.636 569.091 398.636 C 576.622 398.636 582.727 392.531 582.727 385 C 582.727 377.469 576.622 371.364 569.091 371.364 Z  M 235 378.182 C 231.25 378.182 228.182 381.25 228.182 385 C 228.182 388.75 231.25 391.818 235 391.818 C 238.75 391.818 241.818 388.75 241.818 385 C 241.818 381.25 238.75 378.182 235 378.182 Z  M 262.273 378.182 C 258.523 378.182 255.455 381.25 255.455 385 C 255.455 388.75 258.523 391.818 262.273 391.818 C 266.023 391.818 269.091 388.75 269.091 385 C 269.091 381.25 266.023 378.182 262.273 378.182 Z  M 507.727 378.182 C 503.977 378.182 500.909 381.25 500.909 385 C 500.909 388.75 503.977 391.818 507.727 391.818 C 511.477 391.818 514.545 388.75 514.545 385 C 514.545 381.25 511.477 378.182 507.727 378.182 Z  M 535 378.182 C 531.25 378.182 528.182 381.25 528.182 385 C 528.182 388.75 531.25 391.818 535 391.818 C 538.75 391.818 541.818 388.75 541.818 385 C 541.818 381.25 538.75 378.182 535 378.182 Z  M 207.434 425.827 C 204.904 425.739 202.531 427.049 201.257 429.236 C 200.35 430.81 200.109 432.68 200.589 434.432 C 201.569 438.057 205.301 440.202 208.927 439.225 C 212.2 438.37 214.35 435.242 213.975 431.88 C 213.6 428.518 210.815 425.941 207.434 425.827 Z  M 562.75 425.827 C 559.689 425.882 557.023 427.934 556.225 430.914 C 555.755 432.659 555.999 434.519 556.904 436.084 C 557.808 437.649 559.299 438.789 561.045 439.252 C 563.428 439.983 566.019 439.355 567.803 437.616 C 569.587 435.877 570.281 433.303 569.612 430.903 C 568.943 428.503 567.018 426.659 564.591 426.093 C 563.994 425.913 563.373 425.824 562.75 425.827 Z  M 225.414 470.227 C 223.008 470.288 220.812 471.61 219.632 473.707 C 218.452 475.804 218.462 478.367 219.659 480.455 C 220.566 482.002 222.059 483.148 223.818 483.625 C 225.543 484.102 227.411 483.864 228.98 482.93 C 230.556 482.045 231.701 480.555 232.15 478.805 C 232.631 477.062 232.39 475.199 231.482 473.636 C 230.227 471.484 227.905 470.18 225.414 470.227 Z  M 544.082 470.227 C 541.197 470.37 538.715 472.316 537.887 475.083 C 537.06 477.851 538.066 480.84 540.398 482.543 C 542.731 484.247 545.884 484.296 548.268 482.665 C 550.653 481.034 551.751 478.078 551.009 475.286 C 550.538 473.537 549.383 472.051 547.805 471.161 C 546.68 470.497 545.387 470.173 544.082 470.227 Z  M 385 500.909 C 381.25 500.909 378.182 503.977 378.182 507.727 C 378.182 511.477 381.25 514.545 385 514.545 C 388.75 514.545 391.818 511.477 391.818 507.727 C 391.818 503.977 388.75 500.909 385 500.909 Z  M 254.923 508.368 C 253.084 508.337 251.313 509.059 250.02 510.366 C 248.742 511.639 248.024 513.369 248.024 515.173 C 248.024 516.977 248.742 518.707 250.02 519.98 C 251.293 521.258 253.023 521.976 254.827 521.976 C 256.631 521.976 258.361 521.258 259.634 519.98 C 260.912 518.707 261.631 516.977 261.631 515.173 C 261.631 513.369 260.912 511.639 259.634 510.366 C 258.398 509.09 256.699 508.369 254.923 508.368 Z  M 515.261 508.368 C 513.425 508.339 511.657 509.061 510.366 510.366 C 509.088 511.639 508.369 513.369 508.369 515.173 C 508.369 516.977 509.088 518.707 510.366 519.98 C 511.639 521.258 513.369 521.976 515.173 521.976 C 516.977 521.976 518.707 521.258 519.98 519.98 C 521.258 518.707 521.976 516.977 521.976 515.173 C 521.976 513.369 521.258 511.639 519.98 510.366 C 518.742 509.089 517.04 508.368 515.261 508.368 Z  M 385 528.182 C 381.25 528.182 378.182 531.25 378.182 535 C 378.182 538.75 381.25 541.818 385 541.818 C 388.75 541.818 391.818 538.75 391.818 535 C 391.818 531.25 388.75 528.182 385 528.182 Z  M 476.861 537.584 C 475.743 537.639 474.625 537.925 473.636 538.518 C 472.068 539.415 470.922 540.9 470.452 542.644 C 469.982 544.389 470.228 546.249 471.134 547.811 C 473.023 551.084 477.182 552.202 480.455 550.341 C 482.002 549.434 483.148 547.941 483.625 546.182 C 484.107 544.43 483.856 542.557 482.93 540.993 C 481.684 538.831 479.356 537.523 476.861 537.584 Z  M 292.634 537.639 C 290.316 537.741 288.216 539.023 287.043 541.02 C 286.143 542.585 285.893 544.441 286.348 546.189 C 286.825 547.941 287.977 549.434 289.545 550.341 C 292.787 552.008 296.767 550.837 298.589 547.679 C 300.41 544.521 299.431 540.489 296.364 538.518 C 295.232 537.87 293.937 537.562 292.634 537.632 L 292.634 537.639 Z  M 385 555.455 C 377.469 555.455 371.364 561.56 371.364 569.091 C 371.364 576.622 377.469 582.727 385 582.727 C 392.531 582.727 398.636 576.622 398.636 569.091 C 398.636 561.56 392.531 555.455 385 555.455 Z  M 337.273 556.014 C 334.212 556.038 331.548 558.112 330.775 561.073 C 329.803 564.707 331.962 568.44 335.595 569.411 C 339.229 570.383 342.963 568.225 343.934 564.591 C 344.407 562.842 344.164 560.977 343.26 559.408 C 342.355 557.838 340.864 556.693 339.114 556.225 C 338.51 556.086 337.892 556.015 337.273 556.014 L 337.273 556.014 Z  M 432.911 556.014 C 430.748 555.937 428.675 556.887 427.322 558.577 C 425.968 560.266 425.492 562.496 426.039 564.591 C 426.507 566.341 427.652 567.833 429.221 568.737 C 430.791 569.641 432.656 569.884 434.405 569.411 C 436.151 568.948 437.642 567.808 438.546 566.243 C 439.451 564.678 439.695 562.818 439.225 561.073 C 438.464 558.18 435.9 556.126 432.911 556.014 L 432.911 556.014 Z " fill="#7ad3fc"/><path d=" M 427.057 760 L 342.356 760 C 314.807 760 292.239 737.397 292.239 709.804 L 292.239 689.843 C 292.239 688.082 291.36 681.331 284.326 678.689 C 283.447 678.395 282.86 678.102 282.274 677.808 C 270.258 673.699 258.242 668.708 247.104 662.838 C 246.518 662.544 245.639 662.251 245.053 661.957 C 243.001 661.957 236.846 665.186 233.329 667.828 L 221.02 680.157 C 201.383 699.824 169.73 699.824 150.094 680.157 L 89.719 619.98 C 70.082 600.313 70.082 568.611 89.719 548.943 L 100.856 537.789 C 109.355 529.276 104.373 517.828 104.373 517.534 C 103.787 516.36 103.2 515.186 102.907 513.718 C 99.39 505.793 95.873 497.867 93.236 489.941 C 92.943 489.061 92.356 488.474 92.063 487.593 C 87.96 477.612 74.478 477.319 73.892 477.319 L 60.117 477.319 C 32.567 477.319 10 454.716 10 427.123 L 10 342.29 C 10 314.697 32.567 292.094 60.117 292.094 L 73.892 292.094 C 74.185 292.094 87.96 291.8 92.063 281.82 C 92.356 280.939 92.649 280.059 93.236 279.472 C 96.166 271.546 99.39 263.62 102.907 255.695 C 103.2 254.521 103.787 253.346 104.373 252.172 C 104.959 250.411 109.062 240.137 100.856 231.918 L 89.719 220.763 C 70.082 201.096 70.082 169.393 89.719 149.726 L 149.801 89.55 C 169.437 69.883 201.09 69.883 220.727 89.55 L 233.036 101.879 C 237.14 104.814 243.294 108.043 245.639 107.456 C 245.932 107.162 246.225 107.162 246.518 107.162 C 257.948 101.585 269.965 96.301 282.274 92.192 C 282.86 91.898 283.74 91.605 284.326 91.311 C 291.36 88.669 291.946 81.624 292.239 79.863 L 292.239 60.196 C 292.239 32.603 314.807 10 342.356 10 L 427.057 10 C 454.607 10 477.175 32.603 477.175 60.196 L 477.175 80.157 C 477.175 81.918 478.054 88.669 485.088 91.311 C 485.967 91.605 486.553 91.898 487.14 92.192 C 499.449 96.595 511.172 101.585 522.603 107.162 C 523.189 107.456 523.775 107.75 524.654 108.043 C 526.413 108.043 532.274 105.108 536.671 102.172 L 548.98 89.843 C 568.617 70.176 600.27 70.176 619.906 89.843 L 679.988 150.02 C 699.625 169.687 699.625 201.389 679.988 221.057 L 668.851 232.211 C 660.938 240.431 664.748 250.705 665.627 252.759 C 665.92 253.64 666.506 254.814 666.8 255.695 C 670.61 263.62 673.833 271.84 676.764 279.765 C 677.057 280.646 677.644 281.233 677.937 282.114 C 682.04 292.094 695.522 292.388 696.108 292.388 L 709.883 292.388 C 737.433 292.388 760 314.99 760 342.583 L 760 427.417 C 760 455.01 737.433 477.612 709.883 477.612 L 696.108 477.612 C 695.815 477.612 682.04 477.906 677.937 487.886 C 677.665 488.724 677.27 489.515 676.764 490.235 C 673.833 498.16 670.61 506.086 667.093 514.012 C 666.8 515.186 666.213 516.36 665.627 517.828 C 665.041 519.589 660.938 529.863 669.144 538.082 L 680.281 549.237 C 689.66 558.63 694.936 571.252 694.936 584.755 C 694.936 598.258 689.66 610.881 680.281 620.274 L 620.199 680.45 C 600.563 700.117 568.91 700.117 549.273 680.45 L 536.964 668.121 C 532.861 665.186 526.706 662.251 524.361 662.544 C 524.068 662.838 523.482 662.838 523.189 663.131 C 511.758 668.708 499.742 673.699 487.726 678.102 C 487.14 678.395 486.26 678.689 485.674 678.982 C 478.054 681.918 477.761 690.137 477.761 690.137 L 477.761 710.098 C 477.175 737.397 454.607 760 427.057 760 L 427.057 760 Z  M 305.721 639.941 C 329.461 652.27 335.909 676.341 335.909 689.55 L 335.909 709.511 C 335.909 712.74 338.839 715.675 342.063 715.675 L 426.764 715.675 C 429.988 715.675 432.919 712.74 432.919 709.511 L 432.919 689.55 C 432.919 676.341 439.367 651.977 463.4 639.648 C 464.865 638.474 466.917 637.593 468.675 637.006 C 482.157 632.603 495.346 627.025 507.655 620.568 C 511.172 618.806 514.982 617.632 518.792 618.219 C 541.653 615.577 562.169 632.016 564.807 634.07 C 565.393 634.657 565.979 634.951 566.272 635.538 L 579.461 648.748 C 581.805 651.096 585.909 651.096 588.253 648.748 L 648.335 588.571 C 649.801 587.104 650.094 585.049 650.094 584.168 C 650.094 583.288 649.801 581.233 648.335 579.765 L 637.198 568.611 C 616.389 547.769 617.268 521.644 622.544 505.206 C 622.837 503.151 623.423 501.096 624.302 499.335 C 628.699 489.941 632.802 480.548 636.026 471.155 C 636.612 469.1 637.784 467.339 638.957 465.577 C 652.438 439.746 679.988 432.701 695.522 432.994 L 709.297 432.994 C 712.521 432.994 715.451 430.059 715.451 426.83 L 715.451 341.996 C 715.451 338.767 712.521 335.832 709.297 335.832 L 695.229 335.832 C 679.988 335.832 652.145 328.787 638.957 302.955 C 637.784 301.487 636.905 299.433 636.319 297.671 C 633.093 288.008 629.175 278.59 624.596 269.491 C 623.716 267.436 623.13 265.382 622.544 263.327 C 617.562 247.182 616.682 221.057 637.491 200.215 L 648.628 189.061 C 650.973 186.712 650.973 182.603 648.628 180.254 L 588.546 120.078 C 586.202 117.73 582.098 117.73 579.754 120.078 L 566.565 133.288 L 565.1 134.755 C 562.462 136.81 541.946 153.249 519.086 150.607 C 515.276 150.9 511.465 150.02 507.948 147.965 C 495.639 141.507 482.743 135.93 468.968 131.526 C 466.917 130.939 465.158 130.059 463.4 128.885 C 439.66 116.556 433.212 92.485 433.212 78.982 L 433.212 59.022 C 433.212 55.793 430.281 52.857 427.057 52.857 L 342.356 52.857 C 339.132 52.857 336.202 55.793 336.202 59.022 L 336.202 78.982 C 336.202 92.192 329.754 116.556 305.721 128.885 C 304.256 130.059 302.204 130.939 300.445 131.526 C 286.964 135.93 273.775 141.507 261.465 147.965 C 257.948 149.726 254.138 150.607 250.328 150.607 C 227.468 152.955 206.952 136.81 204.314 134.755 C 203.728 134.168 203.142 133.875 202.849 133.288 L 189.66 120.078 C 187.315 117.73 183.212 117.73 180.868 120.078 L 120.785 180.254 C 118.441 182.603 118.441 186.712 120.785 189.061 L 131.923 200.215 C 153.025 221.35 151.852 247.476 146.577 263.62 C 146.284 265.675 145.698 267.436 144.818 269.491 C 140.414 278.669 136.5 288.076 133.095 297.671 C 132.509 299.726 131.336 301.487 130.164 303.249 C 116.682 329.08 88.253 335.832 73.599 335.832 L 59.824 335.832 C 56.6 335.832 53.669 338.767 53.669 341.996 L 53.669 426.83 C 53.669 430.059 56.6 432.994 59.824 432.994 L 73.892 432.994 C 89.132 432.994 116.975 440.039 130.164 465.871 C 131.336 467.339 132.216 469.393 132.802 471.155 C 136.026 480.548 139.836 489.941 144.525 499.335 C 145.404 501.389 145.991 503.444 146.284 505.499 C 151.266 521.644 152.438 547.769 131.336 568.611 L 120.199 579.765 C 117.855 582.113 117.855 586.223 120.199 588.571 L 180.281 648.748 C 182.626 651.096 186.729 651.096 189.074 648.748 L 202.263 635.538 L 203.728 634.07 C 206.366 632.016 226.882 615.577 249.742 618.219 C 253.552 617.926 257.362 618.806 260.879 620.568 C 273.189 627.025 286.378 632.603 299.859 637.006 C 302.497 637.886 304.256 638.767 305.721 639.941 L 305.721 639.941 Z " fill="#7ad3fc"/></g></g></svg>